<svg viewBox="0 0 420.8 420.8" xmlns="http://www.w3.org/2000/svg" xmlns:xlink="http://www.w3.org/1999/xlink" id="Capa_1" overflow="hidden"><g><g><g><path d="M406.8 96.4C398.4 87.6 386.8 82.4 373.6 82.4L307.2 82.4 307.2 81.6C307.2 71.6 303.2 62 296.4 55.6 289.6 48.8 280.4 44.8 270.4 44.8L150.4 44.8C140 44.8 130.8 48.8 124 55.6 117.2 62.4 113.2 71.6 113.2 81.6L113.2 82.4 47.2 82.4C34 82.4 22.4 87.6 14 96.4 5.6 104.8 2.84217e-14 116.8 2.84217e-14 129.6L2.84217e-14 328.8C0 342 5.2 353.6 14 362 22.4 370.4 34.4 376 47.2 376L373.6 376C386.8 376 398.4 370.8 406.8 362 415.2 353.6 420.8 341.6 420.8 328.8L420.8 129.6C420.8 116.4 415.6 104.8 406.8 96.4ZM400 328.8 399.6 328.8C399.6 336 396.8 342.4 392 347.2 387.2 352 380.8 354.8 373.6 354.8L47.2 354.8C40 354.8 33.6 352 28.8 347.2 24 342.4 21.2 336 21.2 328.8L21.2 129.6C21.2 122.4 24 116 28.8 111.2 33.6 106.4 40 103.6 47.2 103.6L124.4 103.6C130.4 103.6 135.2 98.8 135.2 92.8L135.2 81.2C135.2 76.8 136.8 72.8 139.6 70 142.4 67.2 146.4 65.6 150.8 65.6L270.4 65.6C274.8 65.6 278.8 67.2 281.6 70 284.4 72.8 286 76.8 286 81.2L286 92.8C286 98.8 290.8 103.6 296.8 103.6L374 103.6C381.2 103.6 387.6 106.4 392.4 111.2 397.2 116 400 122.4 400 129.6L400 328.8Z" fill="#6B6B6B"/><path d="M210.4 130.8C183.2 130.8 158.4 142 140.8 159.6 122.8 177.6 112 202 112 229.2 112 256.4 123.2 281.2 140.8 298.8 158.8 316.8 183.2 327.6 210.4 327.6 237.6 327.6 262.4 316.4 280 298.8 298 280.8 308.8 256.4 308.8 229.2 308.8 202 297.6 177.2 280 159.6 262.4 142 237.6 130.8 210.4 130.8ZM264.8 284C250.8 297.6 231.6 306.4 210.4 306.4 189.2 306.4 170 297.6 156 284 142 270 133.6 250.8 133.6 229.6 133.6 208.4 142.4 189.2 156 175.2 170 161.2 189.2 152.8 210.4 152.8 231.6 152.8 250.8 161.6 264.8 175.2 278.8 189.2 287.2 208.4 287.2 229.6 287.6 250.8 278.8 270 264.8 284Z" fill="#6B6B6B"/><circle cx="352.8" cy="150" r="19.6" fill="#6B6B6B"/></g></g></g><g></g><g></g><g></g><g></g><g></g><g></g><g></g><g></g><g></g><g></g><g></g><g></g><g></g><g></g><g></g></svg>