<svg viewBox="-42 0 512 512.002" xmlns="http://www.w3.org/2000/svg" xmlns:xlink="http://www.w3.org/1999/xlink" overflow="hidden"><path d="M210.352 246.633C244.234 246.633 273.574 234.48 297.547 210.504 321.52 186.531 333.672 157.199 333.672 123.313 333.672 89.4375 321.52 60.1016 297.543 36.1211 273.566 12.1523 244.23 0 210.352 0 176.465 0 147.133 12.1523 123.16 36.125 99.1875 60.0977 87.0313 89.4336 87.0313 123.313 87.0313 157.199 99.1875 186.535 123.164 210.508 147.141 234.477 176.477 246.633 210.352 246.633Z" fill="#D5D5D5"/><path d="M426.129 393.703C425.438 383.727 424.039 372.844 421.98 361.352 419.902 349.773 417.227 338.828 414.023 328.824 410.715 318.484 406.215 308.273 400.652 298.488 394.879 288.332 388.098 279.488 380.488 272.211 372.531 264.598 362.789 258.477 351.523 254.012 340.297 249.57 327.855 247.32 314.547 247.32 309.32 247.32 304.266 249.465 294.504 255.82 288.496 259.738 281.469 264.27 273.625 269.281 266.918 273.555 257.832 277.559 246.609 281.184 235.66 284.727 224.543 286.523 213.57 286.523 202.598 286.523 191.484 284.727 180.523 281.184 169.313 277.563 160.227 273.559 153.527 269.285 145.758 264.32 138.727 259.789 132.629 255.816 122.879 249.461 117.82 247.316 112.594 247.316 99.2813 247.316 86.8438 249.57 75.6211 254.016 64.3633 258.473 54.6172 264.594 46.6523 272.215 39.0469 279.496 32.2617 288.336 26.4961 298.488 20.9375 308.273 16.4375 318.48 13.125 328.828 9.92578 338.832 7.25 349.773 5.17188 361.352 3.11328 372.828 1.71484 383.715 1.02344 393.715 0.34375 403.512 -4.44089e-16 413.68 -4.44089e-16 423.949 -4.44089e-16 450.676 8.49609 472.313 25.25 488.27 41.7969 504.016 63.6914 512.004 90.3164 512.004L336.848 512.004C363.473 512.004 385.359 504.02 401.91 488.27 418.668 472.324 427.164 450.684 427.164 423.945 427.16 413.629 426.813 403.453 426.129 393.703Z" fill="#D5D5D5"/></svg>